<svg xmlns="http://www.w3.org/2000/svg" viewBox="0 0 900 700" role="img" aria-label="Cupcakes illustration">
<defs>
  <linearGradient id="g" x1="0" x2="1" y1="0" y2="1"><stop stop-color="#fff8ee"/><stop offset="1" stop-color="#f6d7d8"/></linearGradient>
  <filter id="shadow" x="-20%" y="-20%" width="140%" height="140%"><feDropShadow dx="0" dy="24" stdDeviation="22" flood-color="#7f3344" flood-opacity=".18"/></filter>
</defs>
<rect width="900" height="700" fill="url(#g)"/>
<circle cx="160" cy="120" r="80" fill="#fff" opacity=".42"/>
<circle cx="760" cy="110" r="110" fill="#fff" opacity=".35"/>
<circle cx="780" cy="610" r="130" fill="#fff" opacity=".28"/>
<g filter="url(#shadow)">
  <ellipse cx="450" cy="585" rx="260" ry="42" fill="#7f3344" opacity=".15"/>
  <g transform="translate(190 220)">
    <path d="M20 170h170l-26 190H46z" fill="#fff7f2" stroke="#7f3344" stroke-width="8"/>
    <path d="M10 170c12-80 170-80 190 0" fill="#dc8795"/>
    <circle cx="85" cy="112" r="50" fill="#fff" opacity=".75"/><circle cx="135" cy="128" r="42" fill="#fff" opacity=".55"/>
  </g>
  <g transform="translate(460 190)">
    <path d="M20 185h180l-28 190H48z" fill="#fff7f2" stroke="#7f3344" stroke-width="8"/>
    <path d="M10 185c12-92 185-92 200 0" fill="#dc8795"/>
    <circle cx="82" cy="120" r="54" fill="#fff" opacity=".75"/><circle cx="145" cy="138" r="45" fill="#fff" opacity=".55"/>
  </g></g>
<text x="450" y="650" text-anchor="middle" font-family="Georgia, serif" font-size="44" fill="#7f3344" font-weight="700">Cupcakes</text>
</svg>