<svg xmlns="http://www.w3.org/2000/svg" viewBox="0 0 900 700" role="img" aria-label="Rustic cake placeholder">
<defs>
  <linearGradient id="g" x1="0" x2="1" y1="0" y2="1"><stop stop-color="#fff7f2"/><stop offset="1" stop-color="#f8dde0"/></linearGradient>
  <filter id="shadow" x="-20%" y="-20%" width="140%" height="140%"><feDropShadow dx="0" dy="24" stdDeviation="22" flood-color="#7f3344" flood-opacity=".18"/></filter>
</defs>
<rect width="900" height="700" fill="url(#g)"/>
<circle cx="160" cy="120" r="80" fill="#fff" opacity=".42"/>
<circle cx="760" cy="110" r="110" fill="#fff" opacity=".35"/>
<circle cx="780" cy="610" r="130" fill="#fff" opacity=".28"/>
<g filter="url(#shadow)">
  <ellipse cx="450" cy="585" rx="260" ry="42" fill="#7f3344" opacity=".15"/>
  <rect x="330" y="280" width="240" height="120" rx="28" fill="#f0c7c8"/>
  <rect x="285" y="395" width="330" height="135" rx="32" fill="#fff7f2"/>
  <path d="M330 310c42 36 82 36 122 0s78-36 118 0v90H330z" fill="#fff" opacity=".65"/>
  <path d="M285 430c56 42 108 42 158 0s100-42 172 0v95H285z" fill="#f0c7c8" opacity=".55"/>
  <path d="M450 200c-65 35-82 72-53 112 57-8 92-45 53-112z" fill="#8eba80"/>
  <circle cx="405" cy="252" r="28" fill="#f9b9c3"/><circle cx="460" cy="250" r="34" fill="#f4a3b1"/><circle cx="505" cy="268" r="25" fill="#fbd1d5"/></g>
<text x="450" y="650" text-anchor="middle" font-family="Georgia, serif" font-size="44" fill="#7f3344" font-weight="700">Rustic</text>
</svg>